<svg width="8" height="14" viewBox="0 0 8 14" fill="none" xmlns="http://www.w3.org/2000/svg">
<path d="M3.98746 13.0155C3.4342 13.0155 2.9857 12.5678 2.9857 12.0155V1.99988C2.9857 1.4476 2.72598 1.70711 3.27924 1.70711C3.83249 1.70711 4.98922 1.4476 4.98922 1.99988V12.0155C4.98922 12.5678 4.54072 13.0155 3.98746 13.0155Z" fill="#8E9CBB"/>
<path d="M4.69594 0.292893C4.30473 -0.097631 3.67045 -0.097631 3.27924 0.292893L0.293409 3.27181C-0.0978031 3.66233 -0.0978031 4.2955 0.293409 4.68602C0.684621 5.07655 1.3189 5.07655 1.71011 4.68602L4.69594 1.70701C5.08715 1.31648 5.08715 0.683418 4.69594 0.292893Z" fill="#8E9CBB"/>
<path d="M3.27924 0.292893C3.67045 -0.097631 4.30473 -0.097631 4.69594 0.292893L7.68198 3.27191C8.0732 3.66243 8.0732 4.2956 7.68198 4.68612C7.29077 5.07664 6.65649 5.07664 6.26528 4.68612L3.27924 1.70711C2.88802 1.31658 2.88802 0.683418 3.27924 0.292893Z" fill="#8E9CBB"/>
</svg>
