<svg width="8" height="14" viewBox="0 0 8 14" fill="none" xmlns="http://www.w3.org/2000/svg">
<path d="M4.69594 12.7086C4.30473 13.0991 3.67045 13.0991 3.27924 12.7086L0.293409 9.72956C-0.0978031 9.33904 -0.0978031 8.70587 0.293409 8.31535C0.684621 7.92483 1.3189 7.92483 1.71011 8.31535L4.69594 11.2944C5.08715 11.6849 5.08715 12.318 4.69594 12.7086Z" fill="#8E9CBB"/>
<path d="M3.30385 12.7086C3.69506 13.0991 4.32934 13.0991 4.72055 12.7086L7.70659 9.72956C8.0978 9.33904 8.0978 8.70587 7.70659 8.31535C7.31537 7.92483 6.68109 7.92483 6.28988 8.31535L3.30385 11.2944C2.91263 11.6849 2.91263 12.318 3.30385 12.7086Z" fill="#8E9CBB"/>
<path d="M3.98759 12.0157C3.43433 12.0157 2.98583 11.5679 2.98583 11.0157V1C2.98583 0.447715 3.43433 0 3.98759 0C4.54085 0 4.98935 0.447715 4.98935 1V11.0157C4.98935 11.5679 4.54085 12.0157 3.98759 12.0157Z" fill="#8E9CBB"/>
</svg>
